<?xml version="1.0" encoding="UTF-8" standalone="no"?>
<!DOCTYPE svg PUBLIC "-//W3C//DTD SVG 1.1//EN"
 "http://www.w3.org/Graphics/SVG/1.1/DTD/svg11.dtd">
<!-- Generated by graphviz version 2.40.1 (20161225.0304)
 -->
<!-- Title: G Pages: 1 -->
<svg width="134pt" height="239pt"
 viewBox="0.00 0.00 134.00 239.00" xmlns="http://www.w3.org/2000/svg" xmlns:xlink="http://www.w3.org/1999/xlink">
<g id="graph0" class="graph" transform="scale(1 1) rotate(0) translate(4 235)">
<title>G</title>
<polygon fill="#ffffff" stroke="transparent" points="-4,4 -4,-235 130,-235 130,4 -4,4"/>
<!-- g0 -->
<g id="node1" class="node">
<title>g0</title>
<ellipse fill="none" stroke="#000000" cx="63" cy="-162" rx="35.9954" ry="18"/>
<text text-anchor="middle" x="63" y="-158.3" font-family="Times,serif" font-size="14.00" fill="#000000">Config</text>
</g>
<!-- g1 -->
<g id="node2" class="node">
<title>g1</title>
<ellipse fill="none" stroke="#000000" cx="27" cy="-90" rx="27" ry="18"/>
<text text-anchor="middle" x="27" y="-86.3" font-family="Times,serif" font-size="14.00" fill="#000000">X</text>
</g>
<!-- g0&#45;&gt;g1 -->
<g id="edge2" class="edge">
<title>g0&#45;&gt;g1</title>
<path fill="none" stroke="#000000" d="M54.1011,-144.2022C49.8978,-135.7955 44.7959,-125.5917 40.1575,-116.3149"/>
<polygon fill="#000000" stroke="#000000" points="43.1513,-114.4762 35.5486,-107.0972 36.8903,-117.6068 43.1513,-114.4762"/>
</g>
<!-- g2 -->
<g id="node3" class="node">
<title>g2</title>
<ellipse fill="none" stroke="#000000" cx="99" cy="-90" rx="27" ry="18"/>
<text text-anchor="middle" x="99" y="-86.3" font-family="Times,serif" font-size="14.00" fill="#000000">Y</text>
</g>
<!-- g0&#45;&gt;g2 -->
<g id="edge3" class="edge">
<title>g0&#45;&gt;g2</title>
<path fill="none" stroke="#000000" d="M71.8989,-144.2022C76.1022,-135.7955 81.2041,-125.5917 85.8425,-116.3149"/>
<polygon fill="#000000" stroke="#000000" points="89.1097,-117.6068 90.4514,-107.0972 82.8487,-114.4762 89.1097,-117.6068"/>
</g>
<!-- g3 -->
<g id="node4" class="node">
<title>g3</title>
<ellipse fill="none" stroke="#000000" cx="63" cy="-18" rx="27" ry="18"/>
<text text-anchor="middle" x="63" y="-14.3" font-family="Times,serif" font-size="14.00" fill="#000000">Z</text>
</g>
<!-- g1&#45;&gt;g3 -->
<g id="edge4" class="edge">
<title>g1&#45;&gt;g3</title>
<path fill="none" stroke="#000000" d="M35.7146,-72.5708C39.9597,-64.0807 45.1536,-53.6929 49.8663,-44.2674"/>
<polygon fill="#000000" stroke="#000000" points="53.024,-45.7782 54.3657,-35.2687 46.763,-42.6477 53.024,-45.7782"/>
</g>
<!-- g2&#45;&gt;g3 -->
<g id="edge5" class="edge">
<title>g2&#45;&gt;g3</title>
<path fill="none" stroke="#000000" d="M90.2854,-72.5708C86.0403,-64.0807 80.8464,-53.6929 76.1337,-44.2674"/>
<polygon fill="#000000" stroke="#000000" points="79.237,-42.6477 71.6343,-35.2687 72.976,-45.7782 79.237,-42.6477"/>
</g>
<!-- g4 -->
<g id="node5" class="node">
<title>g4</title>
<text text-anchor="middle" x="63" y="-219.8" font-family="Times,serif" font-size="14.00" fill="#000000">filename</text>
</g>
<!-- g4&#45;&gt;g0 -->
<g id="edge1" class="edge">
<title>g4&#45;&gt;g0</title>
<path fill="none" stroke="#000000" d="M63,-215.9589C63,-209.5269 63,-199.856 63,-190.4699"/>
<polygon fill="#000000" stroke="#000000" points="66.5001,-190.1816 63,-180.1816 59.5001,-190.1817 66.5001,-190.1816"/>
</g>
</g>
</svg>
